<svg xmlns="http://www.w3.org/2000/svg" xmlns:xlink="http://www.w3.org/1999/xlink" version="1.1" width="512" height="512" viewBox="0 0 512 512" xml:space="preserve">
<desc>Created with Fabric.js 3.5.0</desc>
<defs>
</defs>
<rect x="0" y="0" width="100%" height="100%" fill="rgba(255,255,255,0)"/>
<g transform="matrix(1 0 0 0.9588 256 256.0022)" id="629844">
<g style="" vector-effect="non-scaling-stroke">
		<g transform="matrix(1 0 0 1 -206 -206)">
<rect style="stroke: none; stroke-width: 1; stroke-dasharray: none; stroke-linecap: butt; stroke-dashoffset: 0; stroke-linejoin: miter; stroke-miterlimit: 4; is-custom-font: none; font-file-url: none; fill: rgb(255,255,255); fill-opacity: 0; fill-rule: nonzero; opacity: 1;" x="-50" y="-50" rx="0" ry="0" width="100" height="100"/>
</g>
		<g transform="matrix(1.3333 0 0 1.3333 -0.0085 52.7937)" id="361919">
<path style="stroke: rgb(0,0,0); stroke-width: 7.5; stroke-dasharray: none; stroke-linecap: butt; stroke-dashoffset: 0; stroke-linejoin: miter; stroke-miterlimit: 4; is-custom-font: none; font-file-url: none; fill: rgb(245,245,245); fill-rule: nonzero; opacity: 0.2;" vector-effect="non-scaling-stroke" transform=" translate(-191.9981, -231.5982)" d="m 33.293 117.47 c -0.60742 0 -1.2077 0.0313 -1.7988 0.0908 c -8.572 0.86361 -15.284 7.8369 -15.722 16.515 c -0.01521 0.29897 -0.02197 0.59961 -0.02197 0.90235 v 193.24 c 0 0.30213 0.0068 0.60251 0.02197 0.90088 c 0.000049 0.00097 -0.000049 0.002 0 0.003 c 0.43792 8.6776 7.1501 15.651 15.722 16.515 c 0.0015 0.00015 0.0029 -0.00015 0.0044 0 c 0.29417 0.0296 0.59079 0.0524 0.88916 0.0674 c 0.29994 0.0152 0.60155 0.022 0.90528 0.022 h 317.41 c 9.6875 0 17.543 -7.8398 17.543 -17.508 v -193.24 c 0 -2.8024 -0.663 -5.4477 -1.8354 -7.7959 l 0.0132 -0.0161 c -1.8605 -3.7337 -5.021 -6.6947 -8.8931 -8.3203 c -0.4739 -0.19896 -0.95733 -0.37706 -1.4517 -0.53466 c -0.0623 -0.02 -0.12344 -0.0422 -0.18603 -0.0615 c -0.18825 -0.0577 -0.3789 -0.10962 -0.56983 -0.16113 c -0.16744 -0.0455 -0.33598 -0.0883 -0.50537 -0.12891 c -0.17039 -0.0405 -0.34038 -0.0816 -0.5127 -0.11718 c -0.31773 -0.0662 -0.63714 -0.12554 -0.96093 -0.17432 c -0.11448 -0.0171 -0.23049 -0.0291 -0.34571 -0.0439 c -0.26852 -0.035 -0.53932 -0.0636 -0.81152 -0.0864 c -0.11359 -0.009 -0.2271 -0.0192 -0.34131 -0.0264 c -0.37823 -0.0243 -0.7582 -0.041 -1.1426 -0.041 z" stroke-linecap="round"/>
</g>
		<g transform="matrix(1.3333 0 0 1.3333 -93.5495 -155.827)" id="361919">
<path style="stroke: none; stroke-width: 1; stroke-dasharray: none; stroke-linecap: butt; stroke-dashoffset: 0; stroke-linejoin: miter; stroke-miterlimit: 4; is-custom-font: none; font-file-url: none; fill: rgb(53,122,240); fill-rule: nonzero; opacity: 1;" vector-effect="non-scaling-stroke" transform=" translate(-121.8401, -75.1307)" d="m 176.08 34.535 l -122.19 0.19141 c -10.027 -1.3906 -18.23 9.4219 -18.23 21.121 v 59.879 c 0.61719 -0.0664 1.2383 -0.10937 1.8711 -0.10937 h 137.36 l 33.129 -39.477 z" stroke-linecap="round"/>
</g>
		<g transform="matrix(1.3333 0 0 1.3333 93.4182 -127.7772)" id="361919">
<path style="stroke: none; stroke-width: 1; stroke-dasharray: none; stroke-linecap: butt; stroke-dashoffset: 0; stroke-linejoin: miter; stroke-miterlimit: 4; is-custom-font: none; font-file-url: none; fill: rgb(48,110,215); fill-rule: evenodd; opacity: 1;" vector-effect="non-scaling-stroke" transform=" translate(-262.0659, -96.1676)" d="m 206.63 76.16 l -33.43 39.457 h 173.22 c 1.543 0 3.0391 0.19922 4.4844 0.55859 l 0.0273 -20.918 c 0.0117 -8.4297 -4.2656 -15.711 -10.465 -19.098 z" stroke-linecap="round"/>
</g>
		<g transform="matrix(1 0 0 1 1.7216 -115.4506)" id="361919">
<path style="stroke: none; stroke-width: 1.3333; stroke-dasharray: none; stroke-linecap: butt; stroke-dashoffset: 0; stroke-linejoin: miter; stroke-miterlimit: 4; is-custom-font: none; font-file-url: none; fill: rgb(0,0,0); fill-rule: nonzero; opacity: 0.296;" vector-effect="non-scaling-stroke" transform=" translate(-257.7216, -140.5494)" d="m 467.88 126.2 l -0.01172 8.6992 c -1.9271 -0.47916 -3.9232 -0.74414 -5.9805 -0.74414 h -228.71 h -2.2539 h -180.89 c -0.84374 0 -1.6712 0.05795 -2.4941 0.14648 v 20 c 0.82292 -0.08853 1.6504 -0.14648 2.4941 -0.14648 h 180.89 h 2.2539 h 228.71 c 2.0573 0 4.0534 0.26498 5.9805 0.74414 l 0.03515 -27.891 c 0.00038 -0.27205 -0.01716 -0.5384 -0.02343 -0.8086 z" stroke-linecap="round"/>
</g>
		<g transform="matrix(1.3333 0 0 1.3333 -0.0086 52.7934)" id="361919">
<path style="stroke: none; stroke-width: 1; stroke-dasharray: none; stroke-linecap: butt; stroke-dashoffset: 0; stroke-linejoin: miter; stroke-miterlimit: 4; is-custom-font: none; font-file-url: none; fill: rgb(245,245,245); fill-rule: nonzero; opacity: 1;" vector-effect="non-scaling-stroke" transform=" translate(-191.998, -231.598)" d="m 33.293 113.73 h 317.41 c 9.6875 0 17.543 7.8359 17.543 17.508 v 200.72 c 0 9.668 -7.8555 17.508 -17.543 17.508 h -317.41 c -9.6875 0 -17.543 -7.8398 -17.543 -17.508 v -200.72 c 0 -9.6719 7.8555 -17.508 17.543 -17.508 z" stroke-linecap="round"/>
</g>
		<g transform="matrix(1.3333 0 0 1.3333 -1.2239 52.7934)" id="361919">
<path style="stroke: none; stroke-width: 1; stroke-dasharray: none; stroke-linecap: butt; stroke-dashoffset: 0; stroke-linejoin: miter; stroke-miterlimit: 4; is-custom-font: none; font-file-url: none; fill: rgb(255,255,255); fill-rule: nonzero; opacity: 1;" vector-effect="non-scaling-stroke" transform=" translate(-191.0865, -231.598)" d="m 33.293 113.73 c -9.7188 0 -17.543 7.8086 -17.543 17.508 v 200.72 c 0 9.6992 7.8242 17.508 17.543 17.508 h 152.07 l 181.06 -226.04 c -2.8672 -5.7539 -8.8086 -9.6953 -15.711 -9.6953 z" stroke-linecap="round"/>
</g>
		<g transform="matrix(1.3333 0 0 1.3333 -0.0725 193.4716)" id="361919">
<path style="stroke: none; stroke-width: 1; stroke-dasharray: none; stroke-linecap: butt; stroke-dashoffset: 0; stroke-linejoin: miter; stroke-miterlimit: 4; is-custom-font: none; font-file-url: none; fill: rgb(179,179,179); fill-rule: nonzero; opacity: 1;" vector-effect="non-scaling-stroke" transform=" translate(-191.95, -337.104)" d="m 15.697 324.6 v 7.5 c 0 9.6682 7.8555 17.508 17.543 17.508 h 317.42 c 9.6878 0 17.543 -7.8398 17.543 -17.508 v -7.5 c 0 9.6682 -7.8555 17.508 -17.543 17.508 h -317.42 c -9.6878 0 -17.543 -7.8398 -17.543 -17.508 z" stroke-linecap="round"/>
</g>
		<g transform="matrix(1 0 0 1 1.7253 -164.9681)" id="361919">
<path style="stroke: none; stroke-width: 1.3333; stroke-dasharray: none; stroke-linecap: butt; stroke-dashoffset: 0; stroke-linejoin: miter; stroke-miterlimit: 4; is-custom-font: none; font-file-url: none; fill: rgb(244,248,254); fill-rule: nonzero; opacity: 0.1;" vector-effect="non-scaling-stroke" transform=" translate(-257.7251, -91.032)" d="m 234.77 45.746 l -162.92 0.25586 c -13.369 -1.8541 -24.307 12.563 -24.307 28.162 v 10 c 0 -15.599 10.937 -30.016 24.307 -28.162 l 162.92 -0.25586 l 42.586 55.475 l -0.02149 0.02539 h 176.62 c 8.1687 4.4629 13.824 14.001 13.941 25.072 l 0.01172 -9.6074 c 0.0156 -11.24 -5.6873 -20.949 -13.953 -25.465 h -176.62 l 0.02149 -0.02539 l -42.586 -55.475 z" stroke-linecap="round"/>
</g>
		<g transform="matrix(8.0452 0 0 8.0452 -0.0022 -6.0507)" id="361919">
<linearGradient id="SVGID_2151" gradientUnits="userSpaceOnUse" gradientTransform="matrix(1 0 0 1 2 -22)" x1="46.752" y1="238" x2="76.655" y2="238">
<stop offset="0%" style="stop-color:rgb(179,179,179);stop-opacity: 1"/>
<stop offset="16.808999999999997%" style="stop-color:rgb(230,230,230);stop-opacity: 1"/>
<stop offset="26.651000000000003%" style="stop-color:rgb(204,204,204);stop-opacity: 1"/>
<stop offset="74.26899999999999%" style="stop-color:rgb(204,204,204);stop-opacity: 1"/>
<stop offset="86.17399999999999%" style="stop-color:rgb(230,230,230);stop-opacity: 1"/>
<stop offset="100%" style="stop-color:rgb(179,179,179);stop-opacity: 1"/>
</linearGradient>
<path style="stroke: none; stroke-width: 1; stroke-dasharray: none; stroke-linecap: butt; stroke-dashoffset: 0; stroke-linejoin: miter; stroke-miterlimit: 4; is-custom-font: none; font-file-url: none; fill: url(#SVGID_2151); fill-rule: nonzero; opacity: 1;" vector-effect="non-scaling-stroke" transform=" translate(-63.9998, -200.2456)" d="m 55 197.24 h 18 c 1.662 0 3 1 3 3 v 3.0112 h -3.2005 l -0.03125 -3.2542 h -17.537 l 0.03125 3.2542 h -3.2629 v -3.0112 c 0 -1.662 1.338 -3 3 -3 z" stroke-linecap="round"/>
</g>
		<g transform="matrix(8.0452 0 0 8.0452 -0.0005 16.1894)" id="361919">
<rect style="stroke: none; stroke-width: 1; stroke-dasharray: none; stroke-linecap: butt; stroke-dashoffset: 0; stroke-linejoin: miter; stroke-miterlimit: 4; is-custom-font: none; font-file-url: none; fill: rgb(0,0,0); fill-rule: nonzero; opacity: 0.1;" vector-effect="non-scaling-stroke" x="-12" y="-2" rx="1.5" ry="1.5" width="24" height="4"/>
</g>
		<g transform="matrix(8.0452 0 0 8.0452 0.0011 5.0636)" id="361919">
<path style="stroke: none; stroke-width: 1; stroke-dasharray: none; stroke-linecap: butt; stroke-dashoffset: 0; stroke-linejoin: miter; stroke-miterlimit: 4; is-custom-font: none; font-file-url: none; fill: rgb(179,179,179); fill-rule: nonzero; opacity: 1;" vector-effect="non-scaling-stroke" transform=" translate(-64.0002, -201.6271)" d="m 55 200 c -1.662 0 -3 0.59221 -3 2.2542 v 1 h 3.2317 v -1.2542 h 17.537 v 1.2542 h 3.2317 v -1 c 0 -1.662 -1.338 -2.2542 -3 -2.2542 z" stroke-linecap="round"/>
</g>
		<g transform="matrix(8.0452 0 0 8.0452 0.2609 10.075)" id="361919">
<rect style="stroke: none; stroke-width: 1; stroke-dasharray: none; stroke-linecap: butt; stroke-dashoffset: 0; stroke-linejoin: miter; stroke-miterlimit: 4; is-custom-font: none; font-file-url: none; fill: rgb(0,0,0); fill-rule: nonzero; opacity: 0.1;" vector-effect="non-scaling-stroke" x="-8.7675" y="-1" rx="0" ry="0" width="17.535" height="2"/>
</g>
		<g transform="matrix(1 0 0 1 -0.004 -87.6881)" id="361919">
<path style="stroke: none; stroke-width: 1.3333; stroke-dasharray: none; stroke-linecap: butt; stroke-dashoffset: 0; stroke-linejoin: miter; stroke-miterlimit: 4; is-custom-font: none; font-file-url: none; fill: rgb(230,230,230); fill-rule: nonzero; opacity: 1;" vector-effect="non-scaling-stroke" transform=" translate(-255.996, -168.312)" d="m 44.391 151.64 c -12.917 0 -23.391 10.448 -23.391 23.344 v 10 c 0 -12.896 10.474 -23.344 23.391 -23.344 h 423.21 c 12.917 0 23.391 10.448 23.391 23.344 v -10 c 0 -12.896 -10.474 -23.344 -23.391 -23.344 h -423.21 z" stroke-linecap="round"/>
</g>
		<g transform="matrix(1.6429 -0.5608 0.4332 1.2691 -12.5929 13.8782)" id="215969">
<path style="stroke: none; stroke-width: 1; stroke-dasharray: none; stroke-linecap: butt; stroke-dashoffset: 0; stroke-linejoin: miter; stroke-miterlimit: 4; is-custom-font: none; font-file-url: none; fill: rgb(255,255,255); fill-rule: nonzero; opacity: 1;" vector-effect="non-scaling-stroke" transform=" translate(-66.9999, -51.5001)" d="M 122.749 28.7526 C 105.69 9.16514 84.434 1.22617 59.5222 0.0821237 C 36.5736 -0.992584 6.75404 8.57578 1.27075 23.2057 C -4.21254 37.8356 9.19104 47.9933 19.6838 52.3268 C 30.1765 56.6603 44.9001 60.7165 59.9961 78.5705 C 75.0921 96.3898 85.8217 103.462 98.8868 102.977 C 112.121 102.457 123.562 91.1896 129.383 79.7492 C 135.273 67.9967 137.811 46.0866 122.749 28.7526 Z" stroke-linecap="round"/>
</g>
</g>
</g>
</svg>