<svg version="1.2" xmlns="http://www.w3.org/2000/svg" viewBox="0 0 512 512" width="512" height="512"><defs><linearGradient id="P" gradientUnits="userSpaceOnUse"/><linearGradient id="g1" x2="1" href="#P" gradientTransform="matrix(0,-364.561,483.134,0,266.667,438.099)"><stop stop-color="#2a2c2f"/><stop offset="1" stop-color="#424649"/></linearGradient></defs><style>.a{opacity:0;fill:#fff}.b{opacity:0;fill:#ffcc30}.c{opacity:.7}.d{fill:url(#g1)}.e{fill:#fff}</style><path class="a" d="m0 0h512v512h-512z"/><path class="b" d="m234.7 24.9c5.2 1.6 9.8 6.9 8.5 10.3-1.3 3.4 2.9 4.6 5.2 4.1 4-0.8 8.4-5.2 7.3-12.4-1.4-9.5-10.1-14.5-17.5-16.2-5.9-1.4-13.9 0.2-15 5-1.2 5.6 8.2 8.2 11.5 9.2z"/><path class="c" d="m21.3 100.9c0-9.2 7.5-16.6 16.7-16.6h436c9.2 0 16.7 7.4 16.7 16.6v320.8c0 9.2-7.5 16.7-16.7 16.7h-436c-9.2 0-16.7-7.5-16.7-16.7z"/><path class="d" d="m21.3 90.3c0-9.2 7.5-16.7 16.7-16.7h436c9.2 0 16.7 7.5 16.7 16.7v320.8c0 9.2-7.5 16.6-16.7 16.6h-436c-9.2 0-16.7-7.4-16.7-16.6z"/><path class="e" d="m210.7 223.8q-0.8-0.7-2-0.7h-82.5q-1.2 0-2 0.7-0.8 0.8-0.8 1.9v5.2q0 1.2 0.8 1.9 0.8 0.7 2 0.7h82.5q1.2 0 2-0.7 0.7-0.7 0.7-1.9v-5.2q0-1.1-0.7-1.9z"/><path class="e" d="m78.6 146.4q-0.8-0.8-1.9-0.8-1.2 0-2 0.8l-4.3 4.1q-0.9 0.9-0.9 1.9 0 1.1 0.9 1.9l33.8 32.1-33.8 32.2q-0.9 0.8-0.9 1.9 0 1 0.9 1.8l4.3 4.1q0.8 0.8 2 0.8 1.1 0 1.9-0.8l40.1-38.1q0.9-0.8 0.9-1.9 0-1-0.9-1.8z"/></svg>