<svg version="1.2" xmlns="http://www.w3.org/2000/svg" viewBox="0 0 512 512" width="512" height="512"><defs><linearGradient id="P" gradientUnits="userSpaceOnUse"/><linearGradient id="g1" x2="1" href="#P" gradientTransform="matrix(0,-393.106,483.134,0,266.667,472.402)"><stop stop-color="#2a2c2f"/><stop offset="1" stop-color="#424649"/></linearGradient></defs><style>.a{opacity:0;fill:#fff}.b{opacity:.7}.c{fill:url(#g1)}.d{fill:#fff}</style><path class="a" d="m0 0h512v512h-512z"/><path class="b" d="m21.3 108.8c0-9.9 7.5-17.9 16.7-17.9h436c9.2 0 16.7 8 16.7 17.9v346c0 9.9-7.5 17.9-16.7 17.9h-436c-9.2 0-16.7-8-16.7-17.9z"/><path class="c" d="m21.3 97.3c0-9.9 7.5-17.9 16.7-17.9h436c9.2 0 16.7 8 16.7 17.9v346c0 9.9-7.5 17.9-16.7 17.9h-436c-9.2 0-16.7-8-16.7-17.9z"/><path class="d" d="m210.7 241.3q-0.8-0.8-2-0.8h-82.5q-1.2 0-2 0.8-0.8 0.8-0.8 2.1v5.6q0 1.2 0.8 2 0.8 0.8 2 0.8h82.5q1.2 0 2-0.8 0.7-0.8 0.7-2v-5.6q0-1.3-0.7-2.1z"/><path class="d" d="m78.6 157.9q-0.8-0.9-1.9-0.9-1.2 0-2 0.9l-4.3 4.4q-0.9 0.9-0.9 2.1 0 1.1 0.9 2l33.8 34.6-33.8 34.7q-0.9 0.9-0.9 2 0 1.2 0.9 2.1l4.3 4.4q0.8 0.8 2 0.8 1.1 0 1.9-0.8l40.1-41.1q0.9-0.9 0.9-2.1 0-1.1-0.9-2z"/></svg>