<svg xmlns="http://www.w3.org/2000/svg" xmlns:xlink="http://www.w3.org/1999/xlink" version="1.1" width="512" height="512" viewBox="0 0 512 512" xml:space="preserve">
<desc>Created with Fabric.js 3.5.0</desc>
<defs>
</defs>
<rect x="0" y="0" width="100%" height="100%" fill="rgba(255,255,255,0)"/>
<g transform="matrix(1 0 0 1 256 256)" id="226791">
<g style="" vector-effect="non-scaling-stroke">
		<g transform="matrix(1 0 0 1 -206 -206)">
<rect style="stroke: none; stroke-width: 1; stroke-dasharray: none; stroke-linecap: butt; stroke-dashoffset: 0; stroke-linejoin: miter; stroke-miterlimit: 4; is-custom-font: none; font-file-url: none; fill: rgb(255,255,255); fill-opacity: 0; fill-rule: nonzero; opacity: 1;" x="-50" y="-50" rx="0" ry="0" width="100" height="100"/>
</g>
		<g transform="matrix(10.6565 0 0 11.5358 -0.244 27.9792)" id="822697">
<rect style="stroke: rgb(0,0,0); stroke-opacity: 0; stroke-width: 1; stroke-dasharray: none; stroke-linecap: butt; stroke-dashoffset: 0; stroke-linejoin: miter; stroke-miterlimit: 4; is-custom-font: none; font-file-url: none; fill: rgb(0,0,0); fill-opacity: 0.67; fill-rule: nonzero; opacity: 1;" vector-effect="non-scaling-stroke" x="-22" y="-16.60065" rx="1.562416" ry="1.562416" width="44" height="33.2013"/>
</g>
		<g transform="matrix(10.6565 0 0 11.5358 -0.244 16.44)" id="822697">
<linearGradient id="SVGID_1256" gradientUnits="userSpaceOnUse" gradientTransform="matrix(1 0 0 0.9765 -408.5715 -512.4705)" x1="409.57144" y1="542.79797" x2="409.57144" y2="507.798">
<stop offset="0%" style="stop-color:rgb(42,44,47);stop-opacity: 1"/>
<stop offset="100%" style="stop-color:rgb(66,70,73);stop-opacity: 1"/>
</linearGradient>
<rect style="stroke: rgb(0,0,0); stroke-opacity: 0; stroke-width: 1; stroke-dasharray: none; stroke-linecap: butt; stroke-dashoffset: 0; stroke-linejoin: miter; stroke-miterlimit: 4; is-custom-font: none; font-file-url: none; fill: url(#SVGID_1256); fill-rule: nonzero; opacity: 1;" vector-effect="non-scaling-stroke" x="-22" y="-16.60065" rx="1.562416" ry="1.562416" width="44" height="33.2013"/>
</g>
		<g transform="matrix(10.6565 0 0 11.5358 -83.9146 -2.5222)" id="822697">
<path style="stroke: rgb(0,0,0); stroke-opacity: 0; stroke-width: 1; stroke-dasharray: none; stroke-linecap: butt; stroke-dashoffset: 0; stroke-linejoin: miter; stroke-miterlimit: 4; is-custom-font: none; font-file-url: none; fill: rgb(255,255,255); fill-rule: nonzero; opacity: 1;" vector-effect="non-scaling-stroke" transform=" translate(-400.2681, -525.2023)" d="m 404.32135 524.78065 c -0.0483 -0.046 -0.11008 -0.0689 -0.18525 -0.0689 h -7.73589 c -0.0752 0 -0.13699 0.023 -0.18535 0.0689 c -0.0483 0.046 -0.0724 0.10474 -0.0724 0.17635 v 0.49076 c 0 0.0715 0.0241 0.13034 0.0724 0.17627 c 0.0484 0.0459 0.11018 0.0689 0.18535 0.0689 h 7.73589 c 0.0752 0 0.13698 -0.0231 0.18525 -0.0689 c 0.0483 -0.0459 0.0724 -0.10474 0.0724 -0.17627 v -0.49076 c 0.00009 -0.0716 -0.024 -0.13033 -0.0724 -0.17635 z" stroke-linecap="round"/>
</g>
		<g transform="matrix(10.6565 0 0 11.5358 -156.7334 -47.8088)" id="822697">
<path style="stroke: rgb(0,0,0); stroke-opacity: 0; stroke-width: 1; stroke-dasharray: none; stroke-linecap: butt; stroke-dashoffset: 0; stroke-linejoin: miter; stroke-miterlimit: 4; is-custom-font: none; font-file-url: none; fill: rgb(255,255,255); fill-rule: nonzero; opacity: 1;" vector-effect="non-scaling-stroke" transform=" translate(-393.4348, -521.2766)" d="m 391.94402 517.5274 c -0.0537 -0.051 -0.11552 -0.0767 -0.18535 -0.0767 c -0.0698 0 -0.13155 0.0256 -0.18525 0.0767 l -0.40294 0.38339 c -0.0537 0.0511 -0.0805 0.10983 -0.0805 0.17636 c 0 0.0666 0.0268 0.12525 0.0805 0.17636 l 3.16695 3.01318 l -3.16695 3.01329 c -0.0537 0.0511 -0.0805 0.10991 -0.0805 0.17626 c 0 0.0666 0.0268 0.12525 0.0805 0.17635 l 0.40294 0.38329 c 0.0537 0.0512 0.11542 0.0766 0.18525 0.0766 c 0.0699 0 0.13165 -0.0255 0.18535 -0.0766 l 3.75515 -3.57283 c 0.0537 -0.0511 0.0805 -0.11001 0.0805 -0.17645 c 0 -0.0665 -0.0268 -0.12525 -0.0805 -0.17636 z" stroke-linecap="round"/>
</g>
		<g transform="matrix(2.3214 0 0 2.4204 -0.0483 -0.1016)" id="643479">
<path style="stroke: rgb(0,0,0); stroke-opacity: 0; stroke-width: 1; stroke-dasharray: none; stroke-linecap: butt; stroke-dashoffset: 0; stroke-linejoin: miter; stroke-miterlimit: 4; is-custom-font: none; font-file-url: none; fill: rgb(0,206,201); fill-opacity: 0; fill-rule: nonzero; opacity: 1;" vector-effect="non-scaling-stroke" transform=" translate(-110.042, -105.6535)" d="M 187.2 109.049 C 153.504 114.041 136.552 120.593 136.344 128.705 C 136.136 136.817 133.848 154.289 129.48 181.121 C 125.112 207.953 114.712 216.897 98.28 207.953 C 81.848 199.009 64.688 192.145 46.8 187.361 C 28.912 182.577 25.376 169.369 36.192 147.737 C 47.008 126.105 41.6 108.009 19.968 93.449 C -1.664 78.889 -5.72 64.641 7.8 50.705 C 21.32 36.769 37.232 30.529 55.536 31.985 C 73.84 33.441 89.544 26.889 102.648 12.329 C 115.752 -2.23097 128.856 -3.89497 141.96 7.33703 C 155.064 18.569 165.256 30.529 172.536 43.217 C 179.816 55.905 192.504 68.801 210.6 81.905 C 228.696 95.009 220.896 104.057 187.2 109.049 Z" stroke-linecap="round"/>
</g>
		<g transform="matrix(0.2172 0 0 0.2172 -8.2853 -209.8711)" id="963894">
<path style="stroke: none; stroke-width: 0; stroke-dasharray: none; stroke-linecap: butt; stroke-dashoffset: 0; stroke-linejoin: miter; stroke-miterlimit: 4; is-custom-font: none; font-file-url: none; fill: rgb(0,0,0); fill-opacity: 0.01; fill-rule: nonzero; opacity: 1;" vector-effect="non-scaling-stroke" transform=" translate(-110.042, -105.6535)" d="M 187.2 109.049 C 153.504 114.041 136.552 120.593 136.344 128.705 C 136.136 136.817 133.848 154.289 129.48 181.121 C 125.112 207.953 114.712 216.897 98.28 207.953 C 81.848 199.009 64.688 192.145 46.8 187.361 C 28.912 182.577 25.376 169.369 36.192 147.737 C 47.008 126.105 41.6 108.009 19.968 93.449 C -1.664 78.889 -5.72 64.641 7.8 50.705 C 21.32 36.769 37.232 30.529 55.536 31.985 C 73.84 33.441 89.544 26.889 102.648 12.329 C 115.752 -2.23097 128.856 -3.89497 141.96 7.33703 C 155.064 18.569 165.256 30.529 172.536 43.217 C 179.816 55.905 192.504 68.801 210.6 81.905 C 228.696 95.009 220.896 104.057 187.2 109.049 Z" stroke-linecap="round"/>
</g>
</g>
</g>
<g transform="matrix(0.2541 0 0 0.1697 255.9983 50.3097)" id="852235">
<path style="stroke: none; stroke-width: 1; stroke-dasharray: none; stroke-linecap: butt; stroke-dashoffset: 0; stroke-linejoin: miter; stroke-miterlimit: 4; is-custom-font: none; font-file-url: none; fill: rgb(255,204,48); fill-opacity: 0.01; fill-rule: nonzero; opacity: 1;" vector-effect="non-scaling-stroke" transform=" translate(-64.5001, -86.0002)" d="M 45.6778 86.6196 C 66.1042 96.0043 84.2827 127.238 79.1517 147.278 C 74.0206 167.318 90.5377 174.161 99.3826 171.424 C 115.264 166.487 132.563 140.63 128.361 98.1549 C 122.839 42.5313 88.6319 12.911 59.3117 2.74432 C 36.1976 -5.27174 4.5318 4.16179 0.426979 32.5112 C -4.36198 65.4064 32.4348 80.5098 45.6778 86.6196 Z" stroke-linecap="round"/>
</g>
</svg>