<svg xmlns="http://www.w3.org/2000/svg" xmlns:xlink="http://www.w3.org/1999/xlink" version="1.1" width="512" height="512" viewBox="0 0 512 512" xml:space="preserve">
<desc>Created with Fabric.js 3.5.0</desc>
<defs>
</defs>
<rect x="0" y="0" width="100%" height="100%" fill="rgba(255,255,255,0)"/>
<g transform="matrix(10.2418 0 0 9.5531 256.001 265.8458)" id="828194">
<g style="" vector-effect="non-scaling-stroke">
		<g transform="matrix(1 0 0 1 0 0.5002)">
<rect style="stroke: none; stroke-width: 1; stroke-dasharray: none; stroke-linecap: butt; stroke-dashoffset: 0; stroke-linejoin: miter; stroke-miterlimit: 4; is-custom-font: none; font-file-url: none; fill: rgb(0,0,0); fill-opacity: 0.7; fill-rule: nonzero; opacity: 1;" x="-23" y="-21.60065" rx="1.562416" ry="1.562416" width="46" height="43.2013"/>
</g>
		<g transform="matrix(1 0 0 1 0 -0.5001)">
<linearGradient id="SVGID_1918" gradientUnits="userSpaceOnUse" gradientTransform="matrix(1 0 0 0.9765 -408.5715 -512.4705)" x1="409.57144" y1="542.79797" x2="409.57144" y2="507.798">
<stop offset="0%" style="stop-color:rgb(42,44,47);stop-opacity: 1"/>
<stop offset="100%" style="stop-color:rgb(66,70,73);stop-opacity: 1"/>
</linearGradient>
<rect style="stroke: none; stroke-width: 1; stroke-dasharray: none; stroke-linecap: butt; stroke-dashoffset: 0; stroke-linejoin: miter; stroke-miterlimit: 4; is-custom-font: none; font-file-url: none; fill: url(#SVGID_1918); fill-rule: nonzero; opacity: 1;" x="-23" y="-21.60065" rx="1.562416" ry="1.562416" width="46" height="43.2013"/>
</g>
		<g transform="matrix(1 0 0 1 -8.3033 -2.5957)">
<path style="stroke: none; stroke-width: 0.0965; stroke-dasharray: none; stroke-linecap: butt; stroke-dashoffset: 0; stroke-linejoin: miter; stroke-miterlimit: 4; is-custom-font: none; font-file-url: none; fill: rgb(255,255,255); fill-rule: nonzero; opacity: 1;" transform=" translate(-400.2681, -525.2023)" d="m 404.32135 524.78065 c -0.0483 -0.046 -0.11008 -0.0689 -0.18525 -0.0689 h -7.73589 c -0.0752 0 -0.13699 0.023 -0.18535 0.0689 c -0.0483 0.046 -0.0724 0.10474 -0.0724 0.17635 v 0.49076 c 0 0.0715 0.0241 0.13034 0.0724 0.17627 c 0.0484 0.0459 0.11018 0.0689 0.18535 0.0689 h 7.73589 c 0.0752 0 0.13698 -0.0231 0.18525 -0.0689 c 0.0483 -0.0459 0.0724 -0.10474 0.0724 -0.17627 v -0.49076 c 0.00009 -0.0716 -0.024 -0.13033 -0.0724 -0.17635 z" stroke-linecap="round"/>
</g>
		<g transform="matrix(1 0 0 1 -15.1366 -6.5214)">
<path style="stroke: none; stroke-width: 0.0965; stroke-dasharray: none; stroke-linecap: butt; stroke-dashoffset: 0; stroke-linejoin: miter; stroke-miterlimit: 4; is-custom-font: none; font-file-url: none; fill: rgb(255,255,255); fill-rule: nonzero; opacity: 1;" transform=" translate(-393.4348, -521.2766)" d="m 391.94402 517.5274 c -0.0537 -0.051 -0.11552 -0.0767 -0.18535 -0.0767 c -0.0698 0 -0.13155 0.0256 -0.18525 0.0767 l -0.40294 0.38339 c -0.0537 0.0511 -0.0805 0.10983 -0.0805 0.17636 c 0 0.0666 0.0268 0.12525 0.0805 0.17636 l 3.16695 3.01318 l -3.16695 3.01329 c -0.0537 0.0511 -0.0805 0.10991 -0.0805 0.17626 c 0 0.0666 0.0268 0.12525 0.0805 0.17635 l 0.40294 0.38329 c 0.0537 0.0512 0.11542 0.0766 0.18525 0.0766 c 0.0699 0 0.13165 -0.0255 0.18535 -0.0766 l 3.75515 -3.57283 c 0.0537 -0.0511 0.0805 -0.11001 0.0805 -0.17645 c 0 -0.0665 -0.0268 -0.12525 -0.0805 -0.17636 z" stroke-linecap="round"/>
</g>
</g>
</g>
</svg>