<svg xmlns="http://www.w3.org/2000/svg" xmlns:xlink="http://www.w3.org/1999/xlink" version="1.1" width="512" height="512" viewBox="0 0 512 512" xml:space="preserve">
<desc>Created with Fabric.js 3.5.0</desc>
<defs>
</defs>
<rect x="0" y="0" width="100%" height="100%" fill="rgba(255,255,255,0)"/>
<g transform="matrix(8 0 0 8 256 256)" id="11975">
<g style="" vector-effect="non-scaling-stroke">
		<g transform="matrix(1 0 0 1 -0.0039 0.0039)">
<linearGradient id="SVGID_87" gradientUnits="userSpaceOnUse" gradientTransform="matrix(1 0 0 1 -31.9961 -1020.3661)" x1="58.3123048254" y1="1051.3450634597" x2="6.38310637375" y2="989.0134606028">
<stop offset="0%" style="stop-color:rgb(42,44,47);stop-opacity: 1"/>
<stop offset="100%" style="stop-color:rgb(83,97,97);stop-opacity: 1"/>
</linearGradient>
<rect style="stroke: none; stroke-width: 1; stroke-dasharray: none; stroke-linecap: butt; stroke-dashoffset: 0; stroke-linejoin: miter; stroke-miterlimit: 4; is-custom-font: none; font-file-url: none; fill: url(#SVGID_87); fill-rule: nonzero; opacity: 1;" x="-25.9961" y="-25.9961" rx="0.992214" ry="0.992205" width="51.9922" height="51.9922"/>
</g>
		<g transform="matrix(1 0 0 1 0.9151 0.0038)">
<linearGradient id="SVGID_88" gradientUnits="userSpaceOnUse" gradientTransform="matrix(1 0 0 1 0 0)" x1="47.99999845509" y1="1048.36219945058" x2="23.99999859515" y2="1004.36220014062">
<stop offset="0%" style="stop-color:rgb(191,201,201);stop-opacity: 1"/>
<stop offset="100%" style="stop-color:rgb(251,251,251);stop-opacity: 1"/>
</linearGradient>
<path style="stroke: none; stroke-width: 1; stroke-dasharray: none; stroke-linecap: butt; stroke-dashoffset: 0; stroke-linejoin: miter; stroke-miterlimit: 4; is-custom-font: none; font-file-url: none; fill: url(#SVGID_88); fill-rule: nonzero; opacity: 1;" transform=" translate(-32.9151, -1020.3661)" d="m 27.335 1007.368 l -1.837925 1.838 l 11.160126 11.1601 l -11.160126 11.1601 l 1.837925 1.8379 l 12.99805 -12.998 l -1.837924 -1.8379 z" stroke-linecap="round"/>
</g>
		<g transform="matrix(1 0 0 1 10.6714 12.7329)">
<linearGradient id="SVGID_89" gradientUnits="userSpaceOnUse" gradientTransform="matrix(1 0 0 1 0 0)" x1="29.30659733425" y1="1024.54429317835" x2="46.81850615385" y2="1041.1959780509">
<stop offset="0%" style="stop-color:rgb(41,44,47);stop-opacity: 1"/>
<stop offset="100%" style="stop-color:rgb(0,0,0);stop-opacity: 0"/>
</linearGradient>
<path style="stroke: none; stroke-width: 1; stroke-dasharray: none; stroke-linecap: butt; stroke-dashoffset: 0; stroke-linejoin: miter; stroke-miterlimit: 4; is-custom-font: none; font-file-url: none; fill: url(#SVGID_89); fill-rule: evenodd; opacity: 0.4;" transform=" translate(-42.6714, -1033.0951)" d="m 27.342799 1033.3641 l 12.459931 12.46 h 18.19727 v -7.7988 l -17.659151 -17.6592 z" stroke-linecap="round"/>
</g>
		<g transform="matrix(1 0 0 1 -0.0039 -24.9961)">
<path style="stroke: none; stroke-width: 1; stroke-dasharray: none; stroke-linecap: butt; stroke-dashoffset: 0; stroke-linejoin: miter; stroke-miterlimit: 4; is-custom-font: none; font-file-url: none; fill: rgb(255,255,255); fill-rule: nonzero; opacity: 0.3;" transform=" translate(-31.9961, -7.0039)" d="m 6.9921875 6.0078125 c -0.5496867 0 -0.9921875 0.442506 -0.9921875 0.9921875 v 1 c 0 -0.5496815 0.4425008 -0.9921875 0.9921875 -0.9921875 h 50.0078125 c 0.549687 0 0.992188 0.442506 0.992188 0.9921875 v -1 c 0 -0.5496815 -0.442501 -0.9921875 -0.992188 -0.9921875 z" stroke-linecap="round"/>
</g>
		<g transform="matrix(1 0 0 1 -0.0039 25.0039)">
<path style="stroke: none; stroke-width: 1; stroke-dasharray: none; stroke-linecap: butt; stroke-dashoffset: 0; stroke-linejoin: miter; stroke-miterlimit: 4; is-custom-font: none; font-file-url: none; fill: rgb(0,0,0); fill-rule: nonzero; opacity: 0.3;" transform=" translate(-31.9961, -1045.3661)" d="m 6.992188 1046.3622 c -0.549687 0 -0.992188 -0.4425 -0.992188 -0.9922 v -1 c 0 0.5497 0.442501 0.9922 0.992188 0.9922 h 50.007812 c 0.549687 0 0.992188 -0.4425 0.992188 -0.9922 v 1 c 0 0.5497 -0.442501 0.9922 -0.992188 0.9922 z" stroke-linecap="round"/>
</g>
</g>
</g>
</svg>