<svg xmlns="http://www.w3.org/2000/svg" xmlns:xlink="http://www.w3.org/1999/xlink" version="1.1" width="512" height="512" viewBox="0 0 512 512" xml:space="preserve">
<desc>Created with Fabric.js 3.5.0</desc>
<defs>
</defs>
<rect x="0" y="0" width="100%" height="100%" fill="rgba(255,255,255,0)"/>
<g transform="matrix(1 0 0 1.0221 256 250.327)" id="528015">
<g style="" vector-effect="non-scaling-stroke">
		<g transform="matrix(1 0 0 1 -206 -206)">
<rect style="stroke: none; stroke-width: 1; stroke-dasharray: none; stroke-linecap: butt; stroke-dashoffset: 0; stroke-linejoin: miter; stroke-miterlimit: 4; is-custom-font: none; font-file-url: none; fill: rgb(255,255,255); fill-opacity: 0; fill-rule: nonzero; opacity: 1;" x="-50" y="-50" rx="0" ry="0" width="100" height="100"/>
</g>
		<g transform="matrix(10.9548 0 0 11.4044 0 40.429)" id="436469">
<rect style="stroke: none; stroke-width: 1; stroke-dasharray: none; stroke-linecap: butt; stroke-dashoffset: 0; stroke-linejoin: miter; stroke-miterlimit: 4; is-custom-font: none; font-file-url: none; fill: rgb(0,0,0); fill-opacity: 0.67; fill-rule: nonzero; opacity: 1;" vector-effect="non-scaling-stroke" x="-22" y="-16.60065" rx="1.562416" ry="1.562416" width="44" height="33.2013"/>
</g>
		<g transform="matrix(10.9548 0 0 11.4044 0 29.0212)" id="436469">
<linearGradient id="SVGID_7" gradientUnits="userSpaceOnUse" gradientTransform="matrix(1 0 0 0.9765 -408.5715 -512.4705)" x1="409.57144" y1="542.79797" x2="409.57144" y2="507.798">
<stop offset="0%" style="stop-color:rgb(42,44,47);stop-opacity: 1"/>
<stop offset="100%" style="stop-color:rgb(66,70,73);stop-opacity: 1"/>
</linearGradient>
<rect style="stroke: none; stroke-width: 1; stroke-dasharray: none; stroke-linecap: butt; stroke-dashoffset: 0; stroke-linejoin: miter; stroke-miterlimit: 4; is-custom-font: none; font-file-url: none; fill: url(#SVGID_7); fill-rule: nonzero; opacity: 1;" vector-effect="non-scaling-stroke" x="-22" y="-16.60065" rx="1.562416" ry="1.562416" width="44" height="33.2013"/>
</g>
		<g transform="matrix(10.9548 0 0 11.4044 -90.9609 5.1225)" id="436469">
<path style="stroke: none; stroke-width: 0.0965; stroke-dasharray: none; stroke-linecap: butt; stroke-dashoffset: 0; stroke-linejoin: miter; stroke-miterlimit: 4; is-custom-font: none; font-file-url: none; fill: rgb(255,255,255); fill-rule: nonzero; opacity: 1;" vector-effect="non-scaling-stroke" transform=" translate(-400.2681, -525.2023)" d="m 404.32135 524.78065 c -0.0483 -0.046 -0.11008 -0.0689 -0.18525 -0.0689 h -7.73589 c -0.0752 0 -0.13699 0.023 -0.18535 0.0689 c -0.0483 0.046 -0.0724 0.10474 -0.0724 0.17635 v 0.49076 c 0 0.0715 0.0241 0.13034 0.0724 0.17627 c 0.0484 0.0459 0.11018 0.0689 0.18535 0.0689 h 7.73589 c 0.0752 0 0.13698 -0.0231 0.18525 -0.0689 c 0.0483 -0.0459 0.0724 -0.10474 0.0724 -0.17627 v -0.49076 c 0.00009 -0.0716 -0.024 -0.13033 -0.0724 -0.17635 z" stroke-linecap="round"/>
</g>
		<g transform="matrix(10.9548 0 0 11.4044 -165.8181 -39.6483)" id="436469">
<path style="stroke: none; stroke-width: 0.0965; stroke-dasharray: none; stroke-linecap: butt; stroke-dashoffset: 0; stroke-linejoin: miter; stroke-miterlimit: 4; is-custom-font: none; font-file-url: none; fill: rgb(255,255,255); fill-rule: nonzero; opacity: 1;" vector-effect="non-scaling-stroke" transform=" translate(-393.4348, -521.2766)" d="m 391.94402 517.5274 c -0.0537 -0.051 -0.11552 -0.0767 -0.18535 -0.0767 c -0.0698 0 -0.13155 0.0256 -0.18525 0.0767 l -0.40294 0.38339 c -0.0537 0.0511 -0.0805 0.10983 -0.0805 0.17636 c 0 0.0666 0.0268 0.12525 0.0805 0.17636 l 3.16695 3.01318 l -3.16695 3.01329 c -0.0537 0.0511 -0.0805 0.10991 -0.0805 0.17626 c 0 0.0666 0.0268 0.12525 0.0805 0.17635 l 0.40294 0.38329 c 0.0537 0.0512 0.11542 0.0766 0.18525 0.0766 c 0.0699 0 0.13165 -0.0255 0.18535 -0.0766 l 3.75515 -3.57283 c 0.0537 -0.0511 0.0805 -0.11001 0.0805 -0.17645 c 0 -0.0665 -0.0268 -0.12525 -0.0805 -0.17636 z" stroke-linecap="round"/>
</g>
</g>
</g>
<g transform="matrix(0.1934 0 0 0.1934 241.8663 13.6605)" id="352523">
<path style="stroke: none; stroke-width: 1; stroke-dasharray: none; stroke-linecap: butt; stroke-dashoffset: 0; stroke-linejoin: miter; stroke-miterlimit: 4; is-custom-font: none; font-file-url: none; fill: rgb(255,255,255); fill-opacity: 0; fill-rule: nonzero; opacity: 1;" vector-effect="non-scaling-stroke" transform=" translate(-46.9, -38.3722)" d="M 84.8999 69.4 C 84.4999 69.1 84.1 68.8 83.7 68.6 C 83 68 82.2 67.5 81.5 66.9 L 80.3999 66 C 80.0999 65.7 79.7 65.4 79.3 65.1 L 78.3 64.2 C 78 63.9 77.6 63.6 77.3 63.2 L 76.3 62.2 C 76 61.9 75.7 61.5 75.3999 61.2 C 74.7999 60.5 74.2 59.8 73.6 59.1 L 71.8999 56.9 L 71 55.7 L 72.3999 54.9 L 73.3 54.4 L 73.7 54.2 L 74.1 53.9 C 74.4 53.7 74.7 53.5 75 53.3 L 75.7 52.7 C 75.8999 52.5 76.2 52.2 76.3999 52 C 76.5999 51.8 76.9 51.5 77 51.3 C 77.4 50.8 77.8 50.2 78.1 49.7 C 78.4 49.1 78.7 48.5 78.8999 47.9 C 79.2 47.3 79.3 46.7 79.5 46 C 79.6 45.4 79.8 44.7 79.8 44 C 79.9 43.3 79.8 42.7 79.8 42 C 79.7 41.3 79.7 40.7 79.5 40.1 C 79.4 39.8 79.3999 39.5 79.2 39.1 C 79.1 38.8 78.9999 38.5 78.8999 38.2 C 78.5999 37.6 78.4 37 78 36.4 L 77.8 36 L 77.5 35.6 C 77.3 35.3 77.0999 35 76.8999 34.8 L 76.3 34.1 L 75.6 33.4 C 75.1 33 74.6 32.5 74.1 32.2 C 73.8 32 73.6 31.8 73.3 31.7 C 73 31.5 72.7 31.4 72.3999 31.2 C 71.7999 30.9 71.2 30.7 70.6 30.5 L 69.2 30 L 69.8 28.6 L 70.3999 27.3 L 70.7 26.6 L 70.8999 25.9 L 71.3 24.5 L 71.5 23.1 C 71.6 22.6 71.6 22.1 71.6 21.7 C 71.6 21.2 71.6 20.7 71.6 20.2 C 71.5 19.2 71.5 18.3 71.2 17.3 C 71.1 16.8 70.9999 16.4 70.8999 15.9 L 70.3999 14.5 C 70.2999 14.3 70.2 14 70.1 13.8 L 69.8 13.2 L 69.5 12.6 L 69.3 12.3 L 69.2 12.1 V 12 C 69.2 12 69.2 11.9 69.2 12 L 68.3 10.7 C 68 10.3 67.7 9.99999 67.3999 9.59999 C 67.0999 9.19999 66.7999 8.89999 66.3999 8.59999 C 66.0999 8.29999 65.7 7.89998 65.3 7.69998 C 64.6 7.09998 63.6999 6.59999 62.8999 6.09999 L 61.6 5.49998 L 60.2 4.99998 C 59.2999 4.69998 58.2999 4.49999 57.3999 4.29999 C 56.8999 4.19999 56.4 4.19999 56 4.09999 L 55.3 3.99998 H 54.6 C 53.6 3.99998 52.7 4.09999 51.7 4.29999 L 50.3 4.59999 L 48.8999 4.99998 C 47.9999 5.39998 47.1 5.69998 46.3 6.19998 L 45.7 6.59999 L 45.1 6.99998 L 43.8 7.89998 H 43.8999 L 42 7.79999 C 41.6 7.49999 41.3 7.09999 41 6.79999 L 40.3999 6.29999 L 39.8 5.89998 C 39.4 5.59998 39 5.39999 38.6 5.09999 C 38.2 4.89999 37.7 4.69998 37.3 4.49998 C 36.9 4.29998 36.3999 4.19998 35.8999 3.99998 C 35.3999 3.89998 34.9 3.79998 34.5 3.69998 C 34 3.59998 33.5 3.59999 33 3.59999 C 32.5 3.59999 32 3.59998 31.5 3.69998 C 31 3.79998 30.5 3.79998 30.1 3.99998 C 29.6 4.09998 29.2 4.29998 28.7 4.39998 C 28.2 4.59998 27.8 4.79998 27.4 4.99998 L 26.8 5.39998 L 26.6 5.49998 H 26.5 C 26.4 5.49998 26.6 5.39998 26.6 5.49998 L 26.3 5.69998 L 25.6 6.19998 C 25.4 6.39998 25.2 6.49998 25 6.69998 C 24.7 6.99998 24.3 7.29998 24 7.69998 C 23.7 8.09998 23.4 8.49999 23.1 8.79999 L 22.3 9.99998 L 21.9 10.6 L 21.2 10.7 L 19.6 10.9 L 18 11.3 L 16.5 11.9 L 15.1 12.6 L 14.4 13.1 L 14 13.4 L 13.7 13.7 L 13.1 14.2 C 12.9 14.4 12.7 14.6 12.5 14.8 C 12.1 15.2 11.8 15.6 11.5 16 C 11.2 16.5 10.9 16.9 10.7 17.4 L 10.3 18.1 L 9.99995 18.8 C 9.79995 19.3 9.69995 19.8 9.49995 20.3 C 9.39995 20.8 9.29996 21.4 9.29996 21.9 C 9.29996 22.2 9.19995 22.4 9.19995 22.7 V 23.5 C 9.19995 24 9.29996 24.6 9.29996 25.1 C 9.39996 25.6 9.49995 26.2 9.69995 26.7 C 9.79995 27 9.89996 27.2 9.89996 27.5 L 10.2 28.2 C 10.4 28.7 10.7 29.1 10.9 29.6 L 11.6 30.9 L 10.4 31.6 L 9.49995 32.1 C 9.39995 32.1 9.29996 32.2 9.29996 32.2 L 9.09995 32.4 L 8.59995 32.7 C 8.29995 32.9 7.99996 33.1 7.79996 33.3 C 7.59996 33.5 7.29995 33.7 7.09995 34 C 6.59995 34.5 6.19996 35 5.79996 35.6 L 5.29996 36.5 L 4.79996 37.4 C 4.49996 38 4.29995 38.7 4.09995 39.4 C 3.99995 39.7 3.99996 40.1 3.89996 40.4 C 3.79996 40.7 3.79996 41.1 3.79996 41.4 C 3.69996 42.1 3.79996 42.8 3.79996 43.5 C 3.79996 43.8 3.89996 44.2 3.89996 44.5 L 4.09995 45.5 C 4.29995 46.2 4.49996 46.9 4.79996 47.5 C 4.89996 47.8 5.09996 48.1 5.29996 48.5 L 5.59995 49 L 5.69995 49.1 V 49.2 C 5.59995 49.1 5.69995 49.2 5.69995 49.1 L 5.89996 49.3 C 6.29996 49.9 6.79996 50.6 7.29996 51 C 7.49996 51.2 7.69995 51.5 7.99995 51.7 L 8.79996 52.4 C 9.09996 52.6 9.39995 52.8 9.69995 53 L 10.6 53.6 L 11.6 54.1 L 12.1 54.3 L 12.6 54.5 L 13.6 54.8 L 14.6 55 L 15.1 55.1 H 15.6 L 16.7 55.2 H 17.9 L 17.7 56.5 C 17.6 57.1 17.5 57.7 17.5 58.3 C 17.4 58.9 17.5 59.5 17.6 60 L 17.7 60.9 C 17.7 61.2 17.8 61.5 17.9 61.7 C 18 62 18.1 62.3 18.1 62.5 C 18.2 62.8 18.3 63.1 18.4 63.3 L 18.8 64.1 L 19.2 64.9 C 19.3 65 19.4 65.2 19.4 65.2 L 19.7 65.6 C 19.9 65.8 20.1 66.2 20.3 66.3 L 20.8 66.9 L 21.4 67.5 C 21.8 67.9 22.3 68.2 22.8 68.5 C 23.3 68.8 23.8 69.1 24.3 69.4 C 24.8 69.6 25.4 69.9 25.9 70 C 26.2 70.1 26.5 70.1 26.7 70.2 C 27 70.3 27.3 70.3 27.6 70.3 C 28.2 70.4 28.7 70.4 29.3 70.4 C 29.9 70.4 30.5 70.3 31 70.2 C 31.3 70.2 31.6 70.1 31.8 70 C 32.1 69.9 32.4 69.8 32.6 69.7 C 32.9 69.6 33.0999 69.5 33.3999 69.4 L 34.2 69 H 34.3 C 34.4 69 34.2 69.1 34.2 69 L 34.3999 68.9 L 34.8 68.6 L 35.6 68.1 L 37.1 68.2 C 37.5 68.6 37.8999 69.1 38.3999 69.5 L 39.1 70.1 C 39.3 70.3 39.6 70.5 39.8 70.6 C 40.3 71 40.8 71.2 41.3 71.6 C 41.8 71.9 42.3999 72.2 42.8999 72.4 C 43.4999 72.6 44 72.8 44.6 73 C 45.2 73.2 45.7999 73.3 46.3999 73.4 C 46.9999 73.5 47.6 73.5 48.2 73.5 C 48.7999 73.5 49.4 73.5 50 73.4 C 50.6 73.4 51.2 73.2 51.8 73.1 C 52.4 73 53 72.8 53.5 72.6 C 54.1 72.4 54.6 72.2 55.2 71.9 L 56 71.5 L 56.8 71 L 57.2 70.8 L 57.3 70.7 C 57.3 70.7 57.2 70.8 57.3 70.7 L 57.5 70.6 L 58.3 70 C 58.9 69.6 59.2 69.2 59.7 68.9 C 60.1 68.5 60.4999 68 60.8999 67.6 C 61.2999 67.1 61.6 66.6 62 66.2 L 62.6 65.4 L 63.6 65.8 L 66.6 66.9 L 69.7 67.8 C 70.7 68 71.8 68.2 72.8 68.5 C 73.3 68.6 73.8999 68.7 74.3999 68.7 L 76 68.9 C 76.5 69 77.1 69 77.6 69.1 L 79.2 69.2 C 79.7 69.3 80.3 69.2 80.8 69.3 H 82.3999 C 82.8999 69.3 83.5 69.3 84 69.3 L 84.8999 69.4 Z M 93.1 71.3 L 87.3999 71.9 C 86.7999 72 86.2999 72 85.7 72.1 L 84 72.2 C 83.4 72.2 82.9 72.3 82.3 72.2 H 80.6 C 80 72.2 79.4999 72.2 78.8999 72.1 L 77.2 72 C 76.6 71.9 76.1 71.9 75.5 71.8 L 73.8 71.6 C 73.2 71.5 72.7 71.5 72.1 71.3 C 71 71.1 69.9 70.8 68.8 70.6 L 65.5 69.7 L 62.3 68.6 L 63.8999 68.1 C 63.4999 68.6 63.1 69.2 62.6 69.7 C 62.1 70.2 61.7 70.7 61.1 71.2 C 60.6 71.6 60 72.2 59.5 72.5 L 59 73 L 58.8 73.1 L 58.7 73.2 H 58.6 L 58.5 73.3 L 58 73.6 L 57.1 74.1 L 56.1 74.5 C 55.5 74.8 54.8 75 54.1 75.2 C 53.4 75.4 52.8 75.6 52.1 75.7 C 51.4 75.8 50.7 75.9 50 75.9 C 49.3 76 48.5999 75.9 47.8999 75.9 C 47.1999 75.9 46.5 75.8 45.8 75.7 C 45.1 75.6 44.4 75.5 43.8 75.2 C 43.1 75 42.5 74.8 41.8 74.5 C 41.2 74.2 40.4999 73.9 39.8999 73.6 C 39.2999 73.2 38.7 72.9 38.2 72.5 C 37.9 72.3 37.5999 72.1 37.3999 71.9 L 36.6 71.2 C 36.1 70.7 35.7 70.2 35.2 69.7 L 36.7 69.8 H 36.6 L 35.8 70.4 L 35.3999 70.7 L 35.2 70.9 L 35.1 71 H 35 L 34.8999 71.1 L 34 71.7 C 33.7 71.9 33.4 72 33 72.2 C 32.7 72.4 32.3 72.5 32 72.6 C 31.7 72.7 31.3 72.8 31 72.9 C 30.3 73.1 29.6 73.2 28.9 73.2 C 28.2 73.2 27.5 73.2 26.8 73.2 C 26.4 73.2 26.1 73.1 25.7 73.1 C 25.3 73 25 73 24.7 72.9 C 24 72.7 23.3 72.5 22.7 72.2 C 22.1 71.9 21.4 71.6 20.8 71.2 C 20.5 71 20.2 70.8 19.9 70.6 C 19.6 70.4 19.3 70.2 19.1 69.9 L 18.3 69.2 L 17.6 68.3 C 17.3 68 17.2 67.8 17 67.5 L 16.7 67.1 C 16.5 66.9 16.5 66.8 16.4 66.6 L 15.9 65.7 L 15.5 64.7 C 15.4 64.4 15.3 64 15.2 63.7 C 15.1 63.4 15 63 14.9 62.7 C 14.8 62.4 14.8 62 14.7 61.7 L 14.6 60.6 C 14.6 59.9 14.6 59.2 14.7 58.5 C 14.8 57.8 15 57.1 15.1 56.4 L 16.1 57.7 L 14.9 57.6 H 14.3 L 13.7 57.5 L 12.5 57.3 L 11.3 56.9 L 10.7 56.7 L 10.1 56.4 L 8.99995 55.9 L 7.89996 55.2 C 7.49996 55 7.19996 54.8 6.89996 54.5 L 5.89996 53.7 C 5.59996 53.4 5.29995 53.1 4.99995 52.8 C 4.29995 52.2 3.99995 51.5 3.49995 50.9 L 3.29996 50.7 L 3.19995 50.6 V 50.5 L 3.09995 50.4 L 2.79996 49.9 C 2.59996 49.5 2.39995 49.2 2.19995 48.8 C 1.79995 48 1.59996 47.3 1.29996 46.5 L 0.999954 45.3 C 0.899954 44.9 0.899957 44.5 0.799957 44.1 C 0.699957 43.3 0.699951 42.4 0.699951 41.6 C 0.699951 41.2 0.799957 40.8 0.799957 40.3 C 0.899957 39.9 0.899954 39.5 0.999954 39.1 C 1.19995 38.3 1.49996 37.5 1.79996 36.7 L 2.29996 35.6 L 2.89996 34.5 C 3.39996 33.8 3.89995 33.1 4.49995 32.5 C 4.79995 32.2 5.09996 31.9 5.39996 31.6 C 5.69996 31.3 6.09996 31 6.39996 30.8 L 6.89996 30.5 L 7.09995 30.3 L 7.19995 30.2 H 7.29996 L 7.39996 30.1 L 8.49995 29.5 L 7.89996 31.4 C 7.59996 30.8 7.19996 30.3 6.89996 29.7 L 6.49995 28.8 C 6.39995 28.5 6.29995 28.2 6.19995 27.9 C 5.99995 27.3 5.79995 26.6 5.69995 26 C 5.59995 25.3 5.49995 24.7 5.49995 24 V 23 C 5.49995 22.7 5.49995 22.3 5.59995 22 C 5.59995 21.3 5.79996 20.7 5.89996 20 C 6.09996 19.4 6.19995 18.7 6.49995 18.1 L 6.89996 17.2 L 7.39996 16.3 C 7.69996 15.7 8.09996 15.2 8.39996 14.6 C 8.79996 14.1 9.19995 13.5 9.69995 13.1 C 9.89995 12.9 10.2 12.6 10.4 12.4 L 11.2 11.7 L 11.6 11.4 L 12 11.2 L 12.7 10.7 H 12.8 H 12.9 L 13 10.6 L 13.2 10.5 L 13.6 10.3 L 14.5 9.89998 C 15.1 9.69998 15.7 9.49999 16.4 9.29999 C 17 9.19999 17.7 9.09999 18.3 8.99998 C 18.9 8.99998 19.6 8.99998 20.2 8.99998 L 19.5 9.39998 C 19.7 8.89998 20 8.39999 20.3 7.79999 C 20.6 7.29999 20.9 6.79999 21.3 6.29999 C 21.7 5.79999 22.1 5.39998 22.5 4.89998 C 22.7 4.69998 22.9 4.49999 23.1 4.29999 L 23.7 3.79999 L 24 3.49998 L 24.1 3.39998 L 24.2 3.29999 L 24.4 3.19998 C 24.6 2.99998 24.9 2.89998 25.2 2.69998 C 25.7 2.39998 26.3 2.19998 26.8 1.89998 C 27.4 1.69998 27.9 1.49999 28.5 1.29999 C 29.1 1.09999 29.7 1.09998 30.3 0.899979 C 30.9 0.899979 31.5 0.799988 32.1 0.799988 C 32.7 0.799988 33.2999 0.899979 33.8999 0.899979 C 34.4999 0.999979 35.1 1.09999 35.7 1.29999 C 36.2999 1.49999 36.8999 1.59998 37.3999 1.89998 C 37.9999 2.09998 38.5 2.39998 39 2.69998 C 39.5 2.99998 40 3.29998 40.5 3.69998 L 41.2 4.29999 L 41.8 4.89998 C 42.2 5.29998 42.5999 5.79998 42.8999 6.19998 L 41.5 6.09999 L 42.7 5.09999 L 43 4.89998 L 43.2 4.79999 L 43.3 4.69998 L 43.3999 4.59999 L 44.1 4.19998 C 45 3.59998 46 3.09998 47.1 2.69998 L 48.7 2.09999 C 49.2 1.99999 49.8 1.79998 50.3 1.69998 C 51.4 1.49998 52.5 1.29999 53.6 1.29999 H 54.3999 H 55.2 C 55.7999 1.29999 56.2999 1.39998 56.8999 1.49998 C 57.9999 1.59998 59.1 1.89998 60.2 2.19998 L 61.8 2.79999 L 63.3 3.49998 C 64.3 3.99998 65.3 4.59999 66.1 5.29999 C 66.6 5.59999 66.9999 5.99998 67.3999 6.39998 C 67.7999 6.79998 68.2 7.19999 68.6 7.59999 C 69 7.99999 69.3999 8.49998 69.7 8.89998 L 70.6 10.2 V 10.3 L 70.7 10.4 L 70.8 10.6 L 71 11 L 71.3999 11.8 L 71.8 12.6 C 71.9 12.9 72 13.1 72.1 13.4 L 72.7 15 C 72.8999 15.5 73 16.1 73.1 16.6 C 73.4 17.7 73.4 18.8 73.5 20 C 73.5 20.6 73.4999 21.1 73.3999 21.7 C 73.3999 22.3 73.2999 22.8 73.2 23.4 L 72.8999 25.1 C 72.7 25.6 72.5999 26.2 72.3999 26.7 L 72.1 27.5 L 71.7 28.3 L 71 29.8 L 70.3999 28.3 C 71.0999 28.5 71.9 28.8 72.6 29.1 C 73 29.2 73.2999 29.4 73.7 29.6 C 74.1 29.8 74.3999 30 74.7 30.2 C 75.3999 30.6 76 31.1 76.6 31.6 L 77.5 32.4 L 78.3 33.3 C 78.6 33.6 78.8 33.9 79 34.2 L 79.2 34.4 L 79.3 34.5 V 34.6 L 79.3999 34.7 L 79.7 35.2 C 80.1 35.9 80.4 36.6 80.8 37.3 C 81 37.7 81.1 38.1 81.2 38.4 C 81.2999 38.8 81.4 39.2 81.5 39.5 C 81.7 40.3 81.7999 41.1 81.8999 41.9 C 81.8999 42.7 81.9999 43.5 81.8999 44.3 C 81.8999 45.1 81.7 45.9 81.5 46.7 C 81.3 47.5 81.1 48.2 80.8 49 C 80.5 49.7 80.1 50.4 79.7 51.1 C 79.2999 51.8 78.8 52.4 78.3 53 C 78.1 53.3 77.8 53.6 77.5 53.9 C 77.2 54.2 77 54.5 76.6 54.7 L 75.6 55.4 C 75.3 55.6 75 55.8 74.7 56 L 74.2 56.3 L 73.7 56.6 L 72.7 57.1 L 73.1 55.7 L 74.7 57.8 C 75.2999 58.5 75.8999 59.1 76.3999 59.8 C 76.7 60.1 77 60.4 77.3 60.7 L 78.2 61.6 C 78.5 61.9 78.7999 62.2 79.2 62.5 L 80.2 63.4 C 80.5 63.7 80.8999 64 81.2 64.2 L 82.2 65 C 82.8999 65.5 83.6 66 84.3 66.5 C 85 67 85.8 67.4 86.5 67.9 L 93.1 71.3 Z" stroke-linecap="round"/>
</g>
</svg>